<svg xmlns="http://www.w3.org/2000/svg" xmlns:xlink="http://www.w3.org/1999/xlink" width="1104.362" height="226.989" viewBox="0 0 1104.362 226.989">
  <defs>
    <clipPath id="clip-path">
      <path id="Path_2" data-name="Path 2" d="M125.758,140h318.8V255.081h-318.8Zm0,0" transform="translate(-125.758 -140)"/>
    </clipPath>
    <clipPath id="clip-path-2">
      <path id="Path_5" data-name="Path 5" d="M180,96.738H348.14V239.688H180Zm0,0" transform="translate(-180 -96.738)"/>
    </clipPath>
  </defs>
  <g id="Deus_curat" transform="translate(-167.812 -96.738)">
    <g id="Group_1" data-name="Group 1" transform="translate(167.812 208.646)" clip-path="url(#clip-path)">
      <path id="Path_1" data-name="Path 1" d="M441.392,193.646c-6.144,3.628-12.216,7.356-18.269,11.135-6.1,3.82-12.115,7.74-17.936,11.974-5.436,3.941-11.256,7.154-16.289,11.661-2.718,2.455-5.254,5.174-8.276,7.255-4.335,2.981-9.468,4.547-14.631,5.648-7.4,1.586-14.813,3.052-22.25,4.3-12.489,2.082-24.938,4.476-37.528,5.861-5.5.576-12.115,2.021-16.875-.273-6.891-3.365-12.338-9.428-18.461-13.954-7.144-5.275-14.46-10.408-21.876-15.369-12.257-8.245-24.877-16.087-37.882-23.129-17.188-9.306-35.336-17.673-54.423-22.22-.424-.1-.839-.2-1.283-.313-8.3-1.94-20.007-4.274-29.546-2.455a77.557,77.557,0,0,1,5.992-5.386c19.957-16.491,45.369-27.363,71.52-27.4,32.688-.081,63.032,17.693,85.414,40.337,2.294,2.314,4.567,4.729,7.417,6.356a26.871,26.871,0,0,0,8.821,2.839c10.084,1.758,20.431,1.293,30.6,2.445l.091.02,7.73,1.394,12.732,2.3a8.536,8.536,0,0,1,6.831,6.275c0,.02.01.04.01.061a15.915,15.915,0,0,1,.354,6.043,7.989,7.989,0,0,1-2.89,5.093,16.9,16.9,0,0,1-7.043,3.112,44.871,44.871,0,0,1-8.963.95c-3.122.071-6.184-.141-9.438-.374-1.586-.1-3.143-.222-4.749-.273-1.6-.02-3.193-.081-4.719-.081-3.1.02-6.053.172-8.882.394-2.809.273-5.456.606-7.861,1.041a70.5,70.5,0,0,0-11.418,3.011,36.565,36.565,0,0,0-4.092,1.768,34.1,34.1,0,0,1,4.234-1.314,67.68,67.68,0,0,1,11.509-1.728c2.385-.192,4.982-.232,7.73-.192s5.638.232,8.589.525c1.5.192,2.981.374,4.486.566s3.082.5,4.658.768c3.072.546,6.447,1.081,9.761,1.354a51.354,51.354,0,0,0,10.266-.121,23.721,23.721,0,0,0,10.246-3.526,15.884,15.884,0,0,0,6.517-9.094,24.2,24.2,0,0,0,.485-9.428,43.1,43.1,0,0,0-1.93-8.053,297.879,297.879,0,0,1,36.043-17.845c1.425-.586,3-1.172,4.486-.738,1.465.465,2.476,2.506,1.384,3.587,1.637-1.647,13.56-4.416,10.246,1.061,13.53-4.83,21.119.131,14.48,5.558,0,0,8.922,2.516,4.88,8.569" transform="translate(-125.584 -138.444)" fill="#09b9c4"/>
    </g>
    <path id="Path_3" data-name="Path 3" d="M214.722,162.476l-7.73-1.394c1.546.162,3.1.374,4.628.647a30.757,30.757,0,0,1,3.1.748" transform="translate(135.273 102.099)" fill="#ff3131"/>
    <g id="Group_2" data-name="Group 2" transform="translate(308.124 96.738)" clip-path="url(#clip-path-2)">
      <path id="Path_4" data-name="Path 4" d="M285.752,115.454s45.107-13.368,49.785,32.628C335.537,148.082,326.4,113.939,285.752,115.454Zm51.725-2.567c-8.842-10.852-23.331-16.329-37.165-16.006a40.975,40.975,0,0,0-28.545,12.651c-2.213,2.273-8.306,8.215-8.427,11.873-.1-3.658-6.214-9.609-8.427-11.893a41,41,0,0,0-28.535-12.641c-13.853-.333-28.333,5.143-37.185,16.006-14.732,18.077-7.892,41.055,3.425,59.385,2.91-9.67,9.033-16.349,17.744-18.9a26.283,26.283,0,0,1,7.2-1,29.974,29.974,0,0,1,17.44,5.79,25.968,25.968,0,0,1,10.074,15.531,26,26,0,0,1,18.128,3.951c7.589,4.982,12.5,12.944,13.136,21.29.96,12.823-7.821,23.675-23.8,29.768,3.961,2.809,7.791,5.881,10.3,9.377a4.759,4.759,0,0,1,.5.687v.02h.01a3.371,3.371,0,0,1,.5-.687c4.486-6.285,13.267-11.176,19.32-15.652,14.894-11.044,29.051-22,40.934-36.356,15.894-19.179,32.153-50.149,13.378-73.2" transform="translate(-178.775 -96.549)" fill="#ff3131"/>
    </g>
    <path id="Path_6" data-name="Path 6" d="M235.2,185.587l-.869.243c-8.437,2.385-16.844,2.829-25.544,3.132-.536.01-1.1.02-1.677.02-.808,0-1.627-.01-2.476-.01a23.145,23.145,0,0,0-7.518.889,2.133,2.133,0,0,0-.364.111c.02-.121-.02-.354,0-.394-.061-3.607-2.142-7.841-3.254-11.176-2.789-8.215-5.3-16.218-6.022-24.9a54.442,54.442,0,0,1,.212-11.57c1.162-8.922,5-17.542,14.3-20.239a19.427,19.427,0,0,1,5.275-.727,23.046,23.046,0,0,1,13.358,4.466,19.086,19.086,0,0,1,7.6,12.459c.253,1.475,1,5.4.061,6.841,1.031-1.384,4.971-2.041,6.457-2.334a19.67,19.67,0,0,1,3.91-.394,18.946,18.946,0,0,1,10.468,3.112c5.416,3.557,9.539,9.529,10.044,16.056,1.021,13.52-12.813,21.119-23.958,24.413" transform="translate(139.945 38.448)" fill="#ff5757"/>
    <g id="Group_30" data-name="Group 30" transform="translate(562.147 193.919)">
      <g id="Group_5" data-name="Group 5" transform="translate(0 1.421)">
        <g id="Group_4" data-name="Group 4" transform="translate(0 0)">
          <g id="Group_3" data-name="Group 3">
            <path id="Path_7" data-name="Path 7" d="M2.031,80.644V-22.75H33.845A47.915,47.915,0,0,1,58.2-16.572,42.7,42.7,0,0,1,75.032.9,53.825,53.825,0,0,1,81.068,26.6v4.758A53.721,53.721,0,0,1,75.1,57a42.274,42.274,0,0,1-16.688,17.4,48.6,48.6,0,0,1-24.357,6.249Zm21.3-86.138V63.53h10.3q12.489,0,19.1-8.166Q59.338,47.215,59.48,32V26.532q0-15.765-6.533-23.86Q46.4-5.476,33.845-5.494Zm0,0" transform="translate(-2.031 22.75)" fill="#5dcad1"/>
          </g>
        </g>
      </g>
      <g id="Group_8" data-name="Group 8" transform="translate(90.375 26.559)">
        <g id="Group_7" data-name="Group 7" transform="translate(0 0)">
          <g id="Group_6" data-name="Group 6">
            <path id="Path_8" data-name="Path 8" d="M39.259,62.457q-16.91,0-27.553-10.368Q1.107,41.73,1.125,24.465V22.477A46.261,46.261,0,0,1,5.6,1.812a32.6,32.6,0,0,1,12.64-14.06,35.647,35.647,0,0,1,18.747-4.971q15.765,0,24.783,9.942,9.081,9.959,9.09,28.192v8.379H21.932A19.042,19.042,0,0,0,27.9,41.366a18.232,18.232,0,0,0,12.711,4.545q11.85,0,18.534-8.592L69.226,48.609a30.963,30.963,0,0,1-12.5,10.226A41.346,41.346,0,0,1,39.259,62.457ZM36.915-.6a12.987,12.987,0,0,0-9.942,4.119c-2.521,2.752-4.119,6.675-4.829,11.788H50.691V13.672Q50.532,6.854,47,3.162,43.43-.593,36.915-.6Zm0,0" transform="translate(-1.125 17.219)" fill="#5dcad1"/>
          </g>
        </g>
      </g>
      <g id="Group_11" data-name="Group 11" transform="translate(171.239 27.979)">
        <g id="Group_10" data-name="Group 10" transform="translate(0 0)">
          <g id="Group_9" data-name="Group 9">
            <path id="Path_9" data-name="Path 9" d="M48.138,52.118q-7.616,9.24-21.02,9.232-12.356,0-18.889-7.1-6.471-7.083-6.6-20.807V-16.906H22.148V32.731q0,12.01,10.936,12,10.439,0,14.344-7.243v-54.4H68.021V59.929H48.706Zm0,0" transform="translate(-1.625 16.906)" fill="#5dcad1"/>
          </g>
        </g>
      </g>
      <g id="Group_14" data-name="Group 14" transform="translate(249.19 26.559)">
        <g id="Group_13" data-name="Group 13" transform="translate(0 0)">
          <g id="Group_12" data-name="Group 12">
            <path id="Path_10" data-name="Path 10" d="M46.394,39.8c0-2.5-1.26-4.474-3.764-5.894C40.162,32.454,36.186,31.14,30.7,30Q3.272,24.252,3.289,6.712q0-10.226,8.45-17.043,8.521-6.87,22.227-6.888,14.62,0,23.363,6.888a21.725,21.725,0,0,1,8.805,17.9H45.613A9.876,9.876,0,0,0,42.772.321Q39.923-2.581,33.9-2.59c-3.462,0-6.143.781-8.024,2.343a7.38,7.38,0,0,0-2.84,5.965,6.42,6.42,0,0,0,3.2,5.539c2.166,1.385,5.823,2.592,10.936,3.622a86.837,86.837,0,0,1,12.924,3.409Q66.33,24.252,66.348,38.952q0,10.519-9.019,17.043Q48.3,62.466,34.038,62.457a41.185,41.185,0,0,1-17.185-3.409A29.107,29.107,0,0,1,5.136,49.6a22.049,22.049,0,0,1-4.261-13H20.332a10.616,10.616,0,0,0,4.048,8.379c2.5,1.953,5.859,2.911,10.084,2.911q5.885,0,8.877-2.2A7.049,7.049,0,0,0,46.394,39.8Zm0,0" transform="translate(-0.875 17.219)" fill="#5dcad1"/>
          </g>
        </g>
      </g>
      <g id="Group_17" data-name="Group 17" transform="translate(362.286 0)">
        <g id="Group_16" data-name="Group 16" transform="translate(0)">
          <g id="Group_15" data-name="Group 15">
            <path id="Path_11" data-name="Path 11" d="M85.635,47.311q-1.225,16.7-12.356,26.274Q62.2,83.172,44.022,83.172q-19.892,0-31.316-13.35Q1.335,56.4,1.344,33.037v-6.32Q1.344,11.8,6.6.443a39.218,39.218,0,0,1,14.984-17.4,42.09,42.09,0,0,1,22.724-6.107q17.9,0,28.831,9.587,10.918,9.587,12.64,26.914h-21.3q-.8-10.013-5.61-14.486c-3.178-3.018-8.024-4.545-14.557-4.545q-10.652,0-15.978,7.669-5.273,7.616-5.4,23.647v7.811q0,16.777,5.042,24.5,5.113,7.749,16.049,7.74,9.853,0,14.7-4.474,4.9-4.527,5.61-13.989Zm0,0" transform="translate(-1.344 23.062)" fill="#5dcad1"/>
          </g>
        </g>
      </g>
      <g id="Group_20" data-name="Group 20" transform="translate(458.696 27.979)">
        <g id="Group_19" data-name="Group 19" transform="translate(0 0)">
          <g id="Group_18" data-name="Group 18">
            <path id="Path_12" data-name="Path 12" d="M48.138,52.118q-7.616,9.24-21.02,9.232-12.356,0-18.889-7.1-6.471-7.083-6.6-20.807V-16.906H22.148V32.731q0,12.01,10.936,12,10.439,0,14.344-7.243v-54.4H68.021V59.929H48.706Zm0,0" transform="translate(-1.625 16.906)" fill="#5dcad1"/>
          </g>
        </g>
      </g>
      <g id="Group_23" data-name="Group 23" transform="translate(540.553 26.559)">
        <g id="Group_22" data-name="Group 22" transform="translate(0 0)">
          <g id="Group_21" data-name="Group 21">
            <path id="Path_13" data-name="Path 13" d="M44.91,3.446a56.928,56.928,0,0,0-7.385-.568q-11.664,0-15.268,7.882V61.037H1.734V-15.8H21.121l.568,9.161Q27.867-17.21,38.8-17.219a21.894,21.894,0,0,1,6.391.923Zm0,0" transform="translate(-1.734 17.219)" fill="#5dcad1"/>
          </g>
        </g>
      </g>
      <g id="Group_26" data-name="Group 26" transform="translate(590.533 26.559)">
        <g id="Group_25" data-name="Group 25" transform="translate(0 0)">
          <g id="Group_24" data-name="Group 24">
            <path id="Path_14" data-name="Path 14" d="M48.641,61.037a22.408,22.408,0,0,1-2.059-6.888q-7.456,8.308-19.386,8.308-11.291,0-18.747-6.533A20.992,20.992,0,0,1,1.063,39.449q0-12.2,9.019-18.747,9.081-6.524,26.2-6.6h9.445v-4.4A12.556,12.556,0,0,0,42.96,1.173q-2.716-3.2-8.592-3.2c-3.462,0-6.178.834-8.166,2.485A8.486,8.486,0,0,0,23.289,7.28H2.767A20.627,20.627,0,0,1,6.885-5.076a26.92,26.92,0,0,1,11.646-8.877,42.2,42.2,0,0,1,16.9-3.267q14.194,0,22.511,7.172Q66.3-2.936,66.323,9.979v33.3c.036,7.3,1.065,12.818,3.054,16.546v1.207ZM31.669,46.763a17.893,17.893,0,0,0,8.379-1.988,13.537,13.537,0,0,0,5.681-5.468V26.1H38.06q-15.418,0-16.4,10.652l-.071,1.207a8.167,8.167,0,0,0,2.7,6.32A10.418,10.418,0,0,0,31.669,46.763Zm0,0" transform="translate(-1.062 17.219)" fill="#5dcad1"/>
          </g>
        </g>
      </g>
      <g id="Group_29" data-name="Group 29" transform="translate(664.367 9.09)">
        <g id="Group_28" data-name="Group 28" transform="translate(0 0)">
          <g id="Group_27" data-name="Group 27">
            <path id="Path_15" data-name="Path 15" d="M31.9-21.062V-2.173H45.036V12.881H31.9V51.228c0,2.84.533,4.882,1.633,6.107,1.083,1.243,3.16,1.846,6.249,1.846a32.264,32.264,0,0,0,6.036-.5V74.236A42.474,42.474,0,0,1,33.39,76.082q-21.6,0-22.014-21.8v-41.4H.156V-2.173h11.22V-21.062Zm0,0" transform="translate(-0.156 21.062)" fill="#5dcad1"/>
          </g>
        </g>
      </g>
    </g>
  </g>
</svg>
